<svg width="147" height="236" viewBox="0 0 147 236" fill="none" xmlns="http://www.w3.org/2000/svg">
<g clip-path="url(#clip0_14_773)">
<mask id="mask0_14_773" style="mask-type:alpha" maskUnits="userSpaceOnUse" x="0" y="-5" width="147" height="245">
<rect y="-5" width="147" height="245" fill="#D9D9D9"/>
</mask>
<g mask="url(#mask0_14_773)">
<path d="M113.023 169.036C111.318 171.227 109.045 173.676 106.205 176.351C103.364 179.026 100.097 181.572 96.375 183.989C92.6818 186.406 88.6761 188.436 84.3863 190.079C80.0682 191.723 75.6363 192.561 71.0341 192.561C62.6818 192.561 55.0966 191.401 48.3068 189.048C41.517 186.728 35.6932 183.247 30.8636 178.639C26.0057 174.031 22.2557 168.294 19.5852 161.43C16.9148 154.566 15.5795 146.574 15.5795 137.518C15.5795 130.364 16.2898 123.371 17.6818 116.474C19.0738 109.61 20.8068 103.1 22.8523 96.9775C24.9261 90.8545 27.142 85.2149 29.5852 80.0587C32 74.9025 34.3011 70.3908 36.4886 66.5559C38.6761 62.7209 40.5511 59.6594 42.1136 57.3714C42.6818 56.5657 43.25 55.76 43.8182 54.9544C44.5 53.9231 44.7273 54.0198 44.017 53.0852C43.0227 51.764 40.2954 51.1517 38.875 50.8294C35.1818 49.9915 31.2898 50.5071 27.7386 51.8929C23.9602 53.3753 20.5511 55.76 17.3125 58.3704C16.4886 59.0149 13.7329 62.1731 12.767 61.9475C11.375 61.593 12.2273 58.0159 12.4545 57.0813C13.0511 54.5999 13.7045 52.2474 14.3579 49.9593C15.0113 47.7035 16.3182 45.931 18.2784 44.7064C19.017 44.1586 19.7841 43.7396 20.6363 43.4818C21.4886 43.224 22.5398 42.9984 23.8182 42.8695C25.0966 42.7406 26.6307 42.6761 28.4488 42.6761H35.3523C40.6932 42.6761 45.0398 42.6439 48.4488 42.5795C51.8295 42.515 55.2386 42.2572 58.6193 41.8705C58.7329 41.9994 58.7897 42.4506 58.7897 43.224V44.7709C54.9545 47.5745 54.2159 52.7308 52.2557 56.888C51.2613 58.9827 50.267 60.8518 49.3295 62.4953C46.4318 67.6193 43.9318 71.132 43.4204 71.841C39.8693 76.8683 33.2784 90.3711 29.7273 103.616C26.375 116.12 20.8352 136.68 29.7273 155.178C34.8409 165.845 42.7386 171.581 46.7727 174.514C51.6022 178.027 60.1818 184.117 72.3409 184.182C75.4091 184.182 85.9204 184.117 95.8068 176.254C101.744 171.549 105.097 165.942 105.892 164.492C107.653 161.333 109.074 158.014 110.153 154.598C110.153 154.598 110.892 152.31 111.432 149.861C115.977 129.655 113.818 68.425 112.057 53.4397C111.915 52.344 111.233 50.056 109.869 48.4769C109.5 48.0579 108.818 47.8646 107.767 47.8646C106.716 47.8646 105.608 47.8968 104.415 47.9613C103.193 48.0257 101.972 48.1546 100.693 48.3802C99.4147 48.5736 98.3636 48.7669 97.5113 48.8958C96.2897 49.0247 95.4091 48.7347 94.8693 47.9613C94.3295 47.2201 94.0454 46.3822 94.0454 45.4798C94.0454 44.5775 94.2443 43.7718 94.6704 42.9984C95.0966 42.2572 95.6647 41.8705 96.4034 41.8705C98.9602 41.8705 101.205 41.9027 103.136 41.9672C105.068 42.0316 106.943 42.0961 108.761 42.1605C110.58 42.225 112.483 42.2572 114.5 42.2572H121.318C127.625 42.1283 132.455 41.9349 135.864 41.7416C139.244 41.5482 141.972 41.226 144.045 40.807C145.494 40.5492 146.375 41.1293 146.687 42.5472C147 43.9974 147.028 45.1253 146.773 45.9632C146.659 46.3822 146.205 46.6722 145.409 46.8978C144.614 47.0912 143.733 47.349 142.767 47.6068C141.801 47.8968 140.892 48.1869 140.04 48.5413C139.187 48.8958 138.648 49.347 138.392 49.8948C137.54 51.8284 136.915 55.2444 136.489 60.2073C136.062 65.1701 135.693 71.0031 135.409 77.7384C135.097 84.4737 134.926 91.8535 134.869 99.9101C134.812 107.967 134.727 116.023 134.585 124.144C134.585 135.552 134.642 144.769 134.756 151.794C134.869 158.82 134.955 164.556 135.04 169.003C135.097 173.483 135.182 177.124 135.324 179.928C135.437 182.764 135.494 185.6 135.494 188.5C135.494 191.111 134.614 194.075 132.852 197.362C131.091 200.65 128.79 204.033 125.949 207.482C123.108 210.93 119.898 214.281 116.318 217.601C112.739 220.888 109.102 223.82 105.409 226.366C101.716 228.912 98.1363 230.975 94.6704 232.554C91.2045 234.133 88.2784 234.938 85.8636 234.938C80.4091 234.938 74.7273 234.455 68.875 233.488C62.9943 232.521 57.2841 231.426 51.7727 230.201C46.2613 228.977 41.1761 227.816 36.4886 226.785C31.8295 225.754 27.9659 225.238 24.9545 225.238C22.8807 225.238 20.9488 225.464 19.1307 225.947C17.3125 226.431 16.3466 227.301 16.2329 228.525C15.9773 229.621 15.5227 229.814 14.8693 229.138C14.2159 228.461 13.875 227.816 13.875 227.269C13.875 225.883 14.8125 224.11 16.6875 221.919C18.5625 219.728 20.6648 217.601 22.9659 215.538C27.1988 211.735 28.5057 209.48 33.1079 212.734C36.9148 215.441 40.6079 218.084 44.7557 220.146C52.4261 223.981 60.6647 226.237 69.017 226.882C80.3807 227.752 98.6477 226.269 107.682 217.278C110.097 214.861 111.489 211.671 111.858 207.675C111.972 206.289 112.085 203.872 112.227 200.36C112.341 196.847 112.455 193.109 112.597 189.113C112.71 185.116 112.795 181.282 112.881 177.576C112.937 173.869 112.966 171.034 112.966 169.132L113.023 169.036Z" fill="#F2C4F2"/>
<path d="M39.6421 142.707C38.8466 140.096 38.3353 137.131 38.108 133.78C37.8807 130.428 37.7671 127.012 37.7671 123.5C37.8523 120.084 38.108 116.732 38.5625 113.348C38.9887 109.997 39.5853 106.774 40.2955 103.648C41.0057 100.555 41.858 97.6865 42.8807 95.0761C43.9035 92.4658 45.0114 90.2744 46.2614 88.4698C48.2785 85.4727 50.7216 82.7012 53.5341 80.2198C56.3466 77.7062 59.3296 75.547 62.483 73.7746C65.608 71.9699 68.7614 70.5841 71.8864 69.5529C75.0114 68.5539 77.8807 68.0383 80.4375 68.0383C85.2955 68.0383 89.5285 69.2306 93.1648 71.6476C96.7728 74.0646 99.7841 77.2872 102.171 81.3477C104.557 85.4083 106.318 90.0811 107.455 95.3984C108.591 100.716 109.188 106.323 109.188 112.221C109.102 115.121 108.903 118.118 108.591 121.244C108.278 124.338 107.682 127.206 106.801 129.816C105.21 134.811 102.909 139.645 99.9262 144.254C96.9148 148.862 93.6194 152.922 89.983 156.435C86.375 159.948 82.625 162.751 78.733 164.846C74.841 166.941 71.1762 168.004 67.7387 168.004C64.6421 168.004 61.6307 167.392 58.6762 166.2C55.7216 165.007 52.9944 163.299 50.5228 161.076C48.0512 158.884 45.8921 156.209 44.0455 153.116C42.1989 150.022 40.7216 146.542 39.6705 142.739L39.6421 142.707ZM52.483 115.218C52.483 121.534 53.0228 127.367 54.1307 132.716C55.2387 138.066 56.7728 142.707 58.7614 146.606C60.75 150.505 63.1648 153.567 65.9773 155.758C68.7898 157.95 71.9432 159.078 75.3807 159.078C78.6478 159.078 81.4319 157.885 83.733 155.468C86.0341 153.051 87.9091 149.99 89.358 146.219C90.8069 142.449 91.8864 138.292 92.5398 133.683C93.1932 129.075 93.5625 124.628 93.6762 120.309C93.6762 111.995 92.9944 104.937 91.6307 99.1367C90.2671 93.3359 88.5057 88.6309 86.4035 85.0215C84.2728 81.4122 81.9716 78.8019 79.4432 77.1261C76.9148 75.4503 74.5285 74.6447 72.2273 74.6447C69.0455 74.6447 66.2614 75.8048 63.875 78.0929C61.4887 80.3809 59.4716 83.4102 57.7955 87.1807C56.1194 90.9512 54.841 95.1728 53.9603 99.8779C53.0796 104.583 52.5966 109.352 52.5114 114.154V115.218H52.483Z" fill="#F2C4F2"/>
</g>
</g>
<defs>
<clipPath id="clip0_14_773">
<rect width="147" height="236" fill="white"/>
</clipPath>
</defs>
</svg>
