<svg width="649" height="65" viewBox="0 0 649 65" fill="none" xmlns="http://www.w3.org/2000/svg">
<path d="M0.675261 26.3431C0.675261 22.7337 1.24853 19.5276 2.39507 16.7249C3.58408 13.8798 5.21896 11.4806 7.29972 9.52721C9.42294 7.57384 11.9496 6.08759 14.8796 5.06844C17.8097 4.04929 21.0157 3.53972 24.4978 3.53972C28.0224 3.53972 31.2497 4.04929 34.1797 5.06844C37.1098 6.08759 39.6152 7.57384 41.6959 9.52721C43.8191 11.4806 45.454 13.8798 46.6006 16.7249C47.7896 19.5276 48.3841 22.7337 48.3841 26.3431C48.3841 29.9526 47.7896 33.1799 46.6006 36.025C45.454 38.8277 43.8191 41.2057 41.6959 43.1591C39.6152 45.1124 37.1098 46.5774 34.1797 47.5541C31.2497 48.4883 28.0224 48.9555 24.4978 48.9555C21.0157 48.9555 17.8097 48.4883 14.8796 47.5541C11.9496 46.5774 9.42294 45.1124 7.29972 43.1591C5.21896 41.2057 3.58408 38.8277 2.39507 36.025C1.24853 33.1799 0.675261 29.9526 0.675261 26.3431ZM42.1418 26.3431C42.1418 22.8186 41.6959 19.7824 40.8042 17.2345C39.9124 14.6442 38.6597 12.521 37.0461 10.8648C35.4749 9.16626 33.6064 7.91356 31.4408 7.10673C29.3175 6.29991 27.0032 5.8965 24.4978 5.8965C22.0349 5.8965 19.7206 6.29991 17.5549 7.10673C15.4317 7.91356 13.5632 9.16626 11.9496 10.8648C10.3784 12.521 9.14692 14.6442 8.25517 17.2345C7.36341 19.7824 6.91753 22.8186 6.91753 26.3431C6.91753 29.8677 7.36341 32.9251 8.25517 35.5155C9.14692 38.0633 10.3784 40.1865 11.9496 41.8851C13.5632 43.5412 15.4317 44.7727 17.5549 45.5795C19.7206 46.3864 22.0349 46.7898 24.4978 46.7898C27.0032 46.7898 29.3175 46.3864 31.4408 45.5795C33.6064 44.7727 35.4749 43.5412 37.0461 41.8851C38.6597 40.1865 39.9124 38.0633 40.8042 35.5155C41.6959 32.9251 42.1418 29.8677 42.1418 26.3431ZM63.9266 48.1911C63.4594 47.0445 62.8437 45.5583 62.0794 43.7323C61.3575 41.9064 60.5719 39.9955 59.7226 37.9996C58.8733 35.9613 58.0028 33.9018 57.111 31.821C56.2193 29.6978 55.37 27.7232 54.5631 25.8973C53.7988 24.0288 53.1194 22.3939 52.5248 20.9926C51.9303 19.5913 51.4845 18.5509 51.1872 17.8715C51.7393 17.9564 52.2488 18.0413 52.7159 18.1263C53.183 18.1687 53.6502 18.19 54.1173 18.19C54.5844 18.19 55.0515 18.1687 55.5186 18.1263C55.9857 18.0413 56.4953 17.9564 57.0473 17.8715C58.3637 21.9481 59.8287 25.9822 61.4424 29.9738C63.056 33.9655 64.7546 38.0846 66.5381 42.331C68.3216 38.5941 70.0202 34.6025 71.6339 30.356C73.29 26.1096 74.755 21.9481 76.0289 17.8715C76.8782 18.0838 77.5789 18.19 78.1309 18.19C78.683 18.19 79.3836 18.0838 80.2329 17.8715C79.9357 18.466 79.4473 19.4851 78.7679 20.9289C78.1309 22.3302 77.3453 24.0288 76.4111 26.0246C75.5193 27.978 74.5214 30.1649 73.4174 32.5854C72.3557 34.9634 71.2517 37.4264 70.1051 39.9742C69.0011 42.4796 67.897 44.985 66.7929 47.4904C65.6888 49.9534 64.6697 52.2889 63.7355 54.4971C62.8012 56.7477 61.9732 58.7647 61.2513 60.5482C60.5719 62.3742 60.0623 63.818 59.7226 64.8796C58.8733 64.6673 58.1514 64.5611 57.5569 64.5611C56.9624 64.5611 56.2405 64.6673 55.3912 64.8796C58.7459 59.3168 61.591 53.7539 63.9266 48.1911ZM85.9656 6.78825C85.9656 5.8965 86.2841 5.13214 86.9211 4.49517C87.558 3.8582 88.3224 3.53972 89.2141 3.53972C90.1059 3.53972 90.8703 3.8582 91.5072 4.49517C92.1442 5.13214 92.4627 5.8965 92.4627 6.78825C92.4627 7.68 92.1442 8.44436 91.5072 9.08133C90.8703 9.7183 90.1059 10.0368 89.2141 10.0368C88.3224 10.0368 87.558 9.7183 86.9211 9.08133C86.2841 8.44436 85.9656 7.68 85.9656 6.78825ZM86.8574 29.7828C86.8574 27.8718 86.8149 25.876 86.73 23.7953C86.6875 21.672 86.5601 19.6974 86.3478 17.8715C87.5368 18.0838 88.4922 18.19 89.2141 18.19C89.936 18.19 90.8915 18.0838 92.0805 17.8715C91.8682 19.6974 91.7195 21.672 91.6346 23.7953C91.5921 25.876 91.5709 27.8718 91.5709 29.7828V36.4072C91.5709 38.3181 91.5921 40.3352 91.6346 42.4584C91.7195 44.5391 91.8682 46.4288 92.0805 48.1274C91.1038 48.0425 90.1484 48 89.2141 48C88.2799 48 87.3245 48.0425 86.3478 48.1274C86.5601 46.4288 86.6875 44.5391 86.73 42.4584C86.8149 40.3352 86.8574 38.3181 86.8574 36.4072V29.7828ZM122.421 30.2286C122.421 27.0438 121.805 24.6446 120.573 23.0309C119.342 21.3748 117.643 20.5467 115.478 20.5467C112.505 20.5467 110.318 21.4597 108.917 23.2857C107.558 25.1117 106.879 27.6808 106.879 30.993V36.4072C106.879 38.3181 106.9 40.3352 106.942 42.4584C107.027 44.5391 107.176 46.4288 107.388 48.1274C106.411 48.0425 105.456 48 104.522 48C103.588 48 102.632 48.0425 101.655 48.1274C101.868 46.4288 101.995 44.5391 102.038 42.4584C102.122 40.3352 102.165 38.3181 102.165 36.4072V29.7828C102.165 27.8718 102.122 25.876 102.038 23.7953C101.995 21.672 101.868 19.6974 101.655 17.8715C102.844 18.0838 103.8 18.19 104.522 18.19C104.861 18.19 105.222 18.1687 105.605 18.1263C106.029 18.0413 106.518 17.9564 107.07 17.8715C106.942 19.57 106.879 21.2686 106.879 22.9672H107.006C108.195 21.1412 109.617 19.7399 111.274 18.7632C112.93 17.7441 114.904 17.2345 117.197 17.2345C118.386 17.2345 119.575 17.4044 120.764 17.7441C121.996 18.0838 123.1 18.6783 124.077 19.5276C125.053 20.3344 125.839 21.4597 126.433 22.9035C127.07 24.3048 127.389 26.1096 127.389 28.3177C127.389 30.1437 127.346 32.0334 127.261 33.9867C127.177 35.8976 127.134 37.9359 127.134 40.1016V44.2419C127.134 44.9213 127.134 45.6008 127.134 46.2802C127.177 46.9172 127.219 47.5329 127.261 48.1274C126.412 48.0425 125.52 48 124.586 48C123.694 48 122.824 48.0425 121.975 48.1274C122.06 45.9192 122.144 43.6474 122.229 41.3118C122.357 38.9763 122.421 36.5771 122.421 34.1141V30.2286ZM136.285 18.4447C136.285 17.001 136.264 15.4298 136.221 13.7312C136.221 12.0326 136.2 10.3553 136.158 8.69915C136.115 7.04304 136.051 5.47185 135.967 3.9856C135.924 2.45687 135.86 1.16171 135.775 0.100099C136.964 0.312421 137.92 0.418582 138.642 0.418582C139.364 0.418582 140.319 0.312421 141.508 0.100099C141.423 1.16171 141.338 2.45687 141.253 3.9856C141.211 5.47185 141.168 7.04304 141.126 8.69915C141.083 10.3553 141.041 12.0326 140.999 13.7312C140.999 15.4298 140.999 17.001 140.999 18.4447V30.0375C140.999 30.8444 141.253 31.2478 141.763 31.2478C142.103 31.2478 142.464 31.0991 142.846 30.8019C143.27 30.5046 143.737 30.1649 144.247 29.7828C144.629 29.4855 145.266 28.9122 146.158 28.0629C147.092 27.2137 148.111 26.237 149.215 25.1329C150.362 23.9864 151.53 22.7761 152.719 21.5022C153.908 20.2282 154.991 19.018 155.967 17.8715C156.817 18.0838 157.623 18.19 158.388 18.19C158.855 18.19 159.322 18.1687 159.789 18.1263C160.256 18.0413 160.851 17.9564 161.573 17.8715C158.897 20.0372 156.328 22.1816 153.865 24.3048C151.445 26.3856 149.13 28.5088 146.922 30.6745C149.343 33.6046 151.827 36.5346 154.375 39.4646C156.965 42.3947 159.598 45.2823 162.273 48.1274C161.551 48.0425 160.893 48 160.299 48C159.747 48 159.195 48 158.643 48C158.175 48 157.666 48 157.114 48C156.562 48 155.988 48.0425 155.394 48.1274C154.46 47.0658 153.398 45.8343 152.209 44.433C151.02 42.9892 149.831 41.5666 148.642 40.1653C147.496 38.764 146.392 37.4476 145.33 36.2161C144.268 34.9846 143.355 33.9655 142.591 33.1587C142.464 32.9888 142.315 32.8402 142.145 32.7128C141.975 32.5854 141.805 32.5217 141.636 32.5217C141.211 32.5217 140.999 32.7765 140.999 33.2861V37.1079C140.999 39.0188 141.02 40.8872 141.062 42.7132C141.147 44.4967 141.296 46.3014 141.508 48.1274C140.531 48.0425 139.576 48 138.642 48C137.708 48 136.752 48.0425 135.775 48.1274C135.86 47.1507 135.924 45.9192 135.967 44.433C136.051 42.9467 136.115 41.3755 136.158 39.7194C136.2 38.0633 136.221 36.386 136.221 34.6874C136.264 32.9888 136.285 31.4176 136.285 29.9738V18.4447ZM182.72 32.2669C181.998 32.5217 181.149 32.734 180.172 32.9039C179.238 33.0737 178.282 33.2648 177.306 33.4772C176.329 33.647 175.352 33.8806 174.376 34.1778C173.441 34.4751 172.592 34.8785 171.828 35.3881C171.106 35.8976 170.511 36.5346 170.044 37.299C169.62 38.0633 169.407 39.04 169.407 40.229C169.407 42.2248 169.981 43.7323 171.127 44.7515C172.274 45.7706 173.548 46.2802 174.949 46.2802C176.563 46.2802 178.028 45.8343 179.344 44.9426C180.703 44.0508 181.743 43.0104 182.465 41.8214L182.72 32.2669ZM166.987 20.9289C168.898 19.4851 170.66 18.5084 172.274 17.9989C173.887 17.4893 175.543 17.2345 177.242 17.2345C178.771 17.2345 180.172 17.4681 181.446 17.9352C182.72 18.3598 183.803 18.9968 184.694 19.8461C185.586 20.6529 186.287 21.6508 186.796 22.8398C187.306 23.9864 187.561 25.2603 187.561 26.6616C187.561 29.0821 187.518 31.5026 187.433 33.923C187.348 36.301 187.306 38.8277 187.306 41.5029C187.306 42.0125 187.306 42.5646 187.306 43.1591C187.348 43.7111 187.455 44.2207 187.625 44.6878C187.794 45.1124 188.028 45.4734 188.325 45.7706C188.665 46.0679 189.153 46.2165 189.79 46.2165C190.003 46.2165 190.215 46.2165 190.427 46.2165C190.682 46.174 190.915 46.0891 191.128 45.9617V47.363C190.661 47.5754 190.066 47.7452 189.344 47.8726C188.665 48 187.901 48.0637 187.051 48.0637C185.692 48.0637 184.652 47.724 183.93 47.0445C183.208 46.3227 182.784 45.4097 182.656 44.3056C181.127 45.8343 179.62 46.9596 178.134 47.6815C176.647 48.4034 174.821 48.7644 172.656 48.7644C171.594 48.7644 170.554 48.6157 169.535 48.3185C168.515 48.0212 167.603 47.5329 166.796 46.8535C166.031 46.174 165.394 45.3672 164.885 44.433C164.418 43.4563 164.184 42.3522 164.184 41.1208C164.184 38.5729 164.97 36.5983 166.541 35.197C168.155 33.7956 170.363 32.8614 173.165 32.3943C175.458 32.0121 177.242 31.6937 178.516 31.4389C179.832 31.1416 180.788 30.8444 181.382 30.5471C182.019 30.2499 182.401 29.9101 182.529 29.528C182.656 29.1033 182.72 28.5725 182.72 27.9355C182.72 26.8739 182.592 25.8548 182.338 24.8781C182.083 23.9014 181.679 23.0521 181.127 22.3302C180.575 21.6083 179.854 21.0351 178.962 20.6104C178.07 20.1433 176.987 19.9098 175.713 19.9098C174.015 19.9098 172.422 20.2919 170.936 21.0563C169.492 21.8207 168.409 22.8823 167.687 24.2411H166.987V20.9289ZM217.689 30.2286C217.689 27.0438 217.074 24.6446 215.842 23.0309C214.611 21.3748 212.912 20.5467 210.746 20.5467C207.774 20.5467 205.587 21.4597 204.186 23.2857C202.827 25.1117 202.147 27.6808 202.147 30.993V36.4072C202.147 38.3181 202.169 40.3352 202.211 42.4584C202.296 44.5391 202.445 46.4288 202.657 48.1274C201.68 48.0425 200.725 48 199.791 48C198.856 48 197.901 48.0425 196.924 48.1274C197.137 46.4288 197.264 44.5391 197.306 42.4584C197.391 40.3352 197.434 38.3181 197.434 36.4072V29.7828C197.434 27.8718 197.391 25.876 197.306 23.7953C197.264 21.672 197.137 19.6974 196.924 17.8715C198.113 18.0838 199.069 18.19 199.791 18.19C200.13 18.19 200.491 18.1687 200.873 18.1263C201.298 18.0413 201.786 17.9564 202.338 17.8715C202.211 19.57 202.147 21.2686 202.147 22.9672H202.275C203.464 21.1412 204.886 19.7399 206.542 18.7632C208.199 17.7441 210.173 17.2345 212.466 17.2345C213.655 17.2345 214.844 17.4044 216.033 17.7441C217.265 18.0838 218.369 18.6783 219.345 19.5276C220.322 20.3344 221.108 21.4597 221.702 22.9035C222.339 24.3048 222.658 26.1096 222.658 28.3177C222.658 30.1437 222.615 32.0334 222.53 33.9867C222.445 35.8976 222.403 37.9359 222.403 40.1016V44.2419C222.403 44.9213 222.403 45.6008 222.403 46.2802C222.445 46.9172 222.488 47.5329 222.53 48.1274C221.681 48.0425 220.789 48 219.855 48C218.963 48 218.093 48.0425 217.243 48.1274C217.328 45.9192 217.413 43.6474 217.498 41.3118C217.626 38.9763 217.689 36.5771 217.689 34.1141V30.2286ZM230.726 42.2036C230.938 42.6282 231.257 43.0954 231.681 43.6049C232.148 44.1145 232.679 44.6028 233.274 45.07C233.911 45.4946 234.611 45.8555 235.376 46.1528C236.182 46.45 237.032 46.5987 237.923 46.5987C238.73 46.5987 239.495 46.4713 240.217 46.2165C240.981 45.9617 241.639 45.6008 242.191 45.1336C242.786 44.6665 243.253 44.072 243.592 43.3501C243.932 42.6282 244.102 41.8002 244.102 40.866C244.102 39.5496 243.72 38.5517 242.956 37.8722C242.234 37.1503 241.321 36.5771 240.217 36.1524C239.112 35.6853 237.902 35.2819 236.586 34.9422C235.269 34.6025 234.059 34.1354 232.955 33.5409C231.851 32.9039 230.917 32.0758 230.152 31.0567C229.431 30.0375 229.07 28.6362 229.07 26.8527C229.07 25.4514 229.303 24.1774 229.77 23.0309C230.237 21.8419 230.917 20.8228 231.809 19.9735C232.7 19.1242 233.804 18.466 235.121 17.9989C236.437 17.4893 237.945 17.2345 239.643 17.2345C241.214 17.2345 242.531 17.4468 243.592 17.8715C244.697 18.2961 245.737 18.6783 246.714 19.018C246.374 19.655 246.055 20.4406 245.758 21.3748C245.461 22.309 245.27 23.0309 245.185 23.5405H244.421C244.081 22.5213 243.423 21.6083 242.446 20.8015C241.469 19.9947 240.259 19.5913 238.815 19.5913C238.178 19.5913 237.541 19.6974 236.904 19.9098C236.267 20.1221 235.694 20.4406 235.185 20.8652C234.675 21.2899 234.25 21.8419 233.911 22.5213C233.571 23.2008 233.401 24.0076 233.401 24.9418C233.401 26.3007 233.762 27.3623 234.484 28.1266C235.248 28.8485 236.182 29.4218 237.286 29.8464C238.391 30.2711 239.601 30.6533 240.917 30.993C242.234 31.2902 243.444 31.7361 244.548 32.3306C245.652 32.8827 246.565 33.6682 247.287 34.6874C248.051 35.7065 248.433 37.1079 248.433 38.8914C248.433 40.1228 248.157 41.3331 247.605 42.5221C247.096 43.7111 246.331 44.7939 245.312 45.7706C244.336 46.7048 243.147 47.448 241.745 48C240.344 48.5096 238.752 48.7644 236.968 48.7644C235.015 48.7644 233.38 48.5733 232.063 48.1911C230.747 47.8089 229.643 47.363 228.751 46.8535C229.006 46.3014 229.261 45.5583 229.516 44.6241C229.813 43.6474 229.961 42.8406 229.961 42.2036H230.726ZM257.521 33.095C257.521 34.8785 257.67 36.5983 257.967 38.2544C258.307 39.9105 258.859 41.3968 259.623 42.7132C260.388 43.9871 261.407 45.0063 262.681 45.7706C263.955 46.535 265.526 46.9172 267.394 46.9172C269.263 46.9172 270.834 46.535 272.108 45.7706C273.382 45.0063 274.401 43.9871 275.165 42.7132C275.929 41.3968 276.46 39.9105 276.758 38.2544C277.097 36.5983 277.267 34.8785 277.267 33.095C277.267 31.3115 277.097 29.5917 276.758 27.9355C276.46 26.2794 275.929 24.8144 275.165 23.5405C274.401 22.2241 273.382 21.1837 272.108 20.4193C270.834 19.655 269.263 19.2728 267.394 19.2728C265.526 19.2728 263.955 19.655 262.681 20.4193C261.407 21.1837 260.388 22.2241 259.623 23.5405C258.859 24.8144 258.307 26.2794 257.967 27.9355C257.67 29.5917 257.521 31.3115 257.521 33.095ZM251.916 33.095C251.916 30.2074 252.362 27.7657 253.253 25.7699C254.188 23.7316 255.398 22.0967 256.884 20.8652C258.37 19.5913 260.027 18.6783 261.853 18.1263C263.721 17.5318 265.568 17.2345 267.394 17.2345C269.263 17.2345 271.11 17.5318 272.936 18.1263C274.762 18.6783 276.418 19.5913 277.904 20.8652C279.39 22.0967 280.579 23.7316 281.471 25.7699C282.405 27.7657 282.872 30.2074 282.872 33.095C282.872 35.9826 282.405 38.4455 281.471 40.4838C280.579 42.4796 279.39 44.1145 277.904 45.3884C276.418 46.6199 274.762 47.4904 272.936 48C271.11 48.5096 269.263 48.7644 267.394 48.7644C265.568 48.7644 263.721 48.5096 261.853 48C260.027 47.4904 258.37 46.6199 256.884 45.3884C255.398 44.1145 254.188 42.4796 253.253 40.4838C252.362 38.4455 251.916 35.9826 251.916 33.095ZM290.304 18.4447C290.304 17.001 290.282 15.4298 290.24 13.7312C290.24 12.0326 290.219 10.3553 290.176 8.69915C290.134 7.04304 290.07 5.47185 289.985 3.9856C289.943 2.45687 289.879 1.16171 289.794 0.100099C290.983 0.312421 291.938 0.418582 292.66 0.418582C293.382 0.418582 294.338 0.312421 295.527 0.100099C295.442 1.16171 295.357 2.45687 295.272 3.9856C295.229 5.47185 295.187 7.04304 295.144 8.69915C295.102 10.3553 295.06 12.0326 295.017 13.7312C295.017 15.4298 295.017 17.001 295.017 18.4447V29.9738C295.017 31.4176 295.017 32.9888 295.017 34.6874C295.06 36.386 295.102 38.0633 295.144 39.7194C295.187 41.3755 295.229 42.9467 295.272 44.433C295.357 45.9192 295.442 47.1507 295.527 48.1274C294.55 48.0425 293.595 48 292.66 48C291.726 48 290.771 48.0425 289.794 48.1274C289.879 47.1507 289.943 45.9192 289.985 44.433C290.07 42.9467 290.134 41.3755 290.176 39.7194C290.219 38.0633 290.24 36.386 290.24 34.6874C290.282 32.9888 290.304 31.4176 290.304 29.9738V18.4447ZM321.472 32.2669C320.75 32.5217 319.9 32.734 318.924 32.9039C317.99 33.0737 317.034 33.2648 316.057 33.4772C315.081 33.647 314.104 33.8806 313.127 34.1778C312.193 34.4751 311.344 34.8785 310.579 35.3881C309.858 35.8976 309.263 36.5346 308.796 37.299C308.371 38.0633 308.159 39.04 308.159 40.229C308.159 42.2248 308.732 43.7323 309.879 44.7515C311.025 45.7706 312.299 46.2802 313.701 46.2802C315.314 46.2802 316.779 45.8343 318.096 44.9426C319.455 44.0508 320.495 43.0104 321.217 41.8214L321.472 32.2669ZM305.739 20.9289C307.649 19.4851 309.412 18.5084 311.025 17.9989C312.639 17.4893 314.295 17.2345 315.994 17.2345C317.522 17.2345 318.924 17.4681 320.198 17.9352C321.472 18.3598 322.554 18.9968 323.446 19.8461C324.338 20.6529 325.039 21.6508 325.548 22.8398C326.058 23.9864 326.313 25.2603 326.313 26.6616C326.313 29.0821 326.27 31.5026 326.185 33.923C326.1 36.301 326.058 38.8277 326.058 41.5029C326.058 42.0125 326.058 42.5646 326.058 43.1591C326.1 43.7111 326.206 44.2207 326.376 44.6878C326.546 45.1124 326.78 45.4734 327.077 45.7706C327.417 46.0679 327.905 46.2165 328.542 46.2165C328.754 46.2165 328.967 46.2165 329.179 46.2165C329.434 46.174 329.667 46.0891 329.88 45.9617V47.363C329.412 47.5754 328.818 47.7452 328.096 47.8726C327.417 48 326.652 48.0637 325.803 48.0637C324.444 48.0637 323.404 47.724 322.682 47.0445C321.96 46.3227 321.535 45.4097 321.408 44.3056C319.879 45.8343 318.372 46.9596 316.885 47.6815C315.399 48.4034 313.573 48.7644 311.408 48.7644C310.346 48.7644 309.306 48.6157 308.286 48.3185C307.267 48.0212 306.354 47.5329 305.547 46.8535C304.783 46.174 304.146 45.3672 303.637 44.433C303.169 43.4563 302.936 42.3522 302.936 41.1208C302.936 38.5729 303.721 36.5983 305.293 35.197C306.906 33.7956 309.114 32.8614 311.917 32.3943C314.21 32.0121 315.994 31.6937 317.268 31.4389C318.584 31.1416 319.539 30.8444 320.134 30.5471C320.771 30.2499 321.153 29.9101 321.281 29.528C321.408 29.1033 321.472 28.5725 321.472 27.9355C321.472 26.8739 321.344 25.8548 321.089 24.8781C320.835 23.9014 320.431 23.0521 319.879 22.3302C319.327 21.6083 318.605 21.0351 317.714 20.6104C316.822 20.1433 315.739 19.9098 314.465 19.9098C312.766 19.9098 311.174 20.2919 309.688 21.0563C308.244 21.8207 307.161 22.8823 306.439 24.2411H305.739V20.9289ZM357.035 37.2353C357.035 38.3818 357.268 39.5071 357.735 40.6112C358.203 41.6728 358.84 42.6282 359.646 43.4775C360.496 44.2844 361.494 44.9426 362.64 45.4521C363.787 45.9192 365.039 46.1528 366.398 46.1528C368.564 46.1528 370.411 45.7706 371.94 45.0063C373.469 44.1994 374.976 43.0529 376.462 41.5666C374.297 39.0188 372.237 36.4921 370.284 33.9867C368.33 31.4813 366.398 28.891 364.487 26.2157C362.152 27.6171 360.326 29.1458 359.009 30.8019C357.693 32.458 357.035 34.6025 357.035 37.2353ZM359.137 14.7503C359.137 13.3915 359.37 12.1388 359.837 10.9922C360.347 9.84569 361.026 8.84778 361.876 7.99849C362.767 7.10673 363.808 6.4273 364.997 5.96019C366.186 5.45062 367.502 5.19583 368.946 5.19583C371.409 5.19583 373.426 5.81157 374.997 7.04304C376.611 8.23204 377.418 9.99432 377.418 12.3299C377.418 13.5189 377.142 14.6654 376.59 15.7695C376.038 16.8736 375.316 17.9139 374.424 18.8906C373.575 19.8248 372.64 20.6954 371.621 21.5022C370.602 22.2665 369.625 22.9247 368.691 23.4768C370.602 25.9397 372.471 28.3602 374.297 30.7382C376.123 33.0737 377.991 35.2819 379.902 37.3627C381.431 35.197 382.811 33.1374 384.042 31.1841C385.316 29.1882 386.463 27.0438 387.482 24.7507C387.737 25.3028 388.076 25.7911 388.501 26.2157C388.968 26.5979 389.435 26.9589 389.902 27.2986C388.586 29.3369 387.269 31.3115 385.953 33.2224C384.637 35.1333 383.087 37.1079 381.303 39.1462L389.456 48.1274C388.777 48.0425 388.098 48 387.418 48C386.739 48 386.059 48 385.38 48C384.785 48 384.17 48 383.533 48C382.938 48 382.344 48.0425 381.749 48.1274C381.409 47.6603 380.879 46.9596 380.157 46.0254C379.477 45.0487 378.67 44.0083 377.736 42.9043C375.868 44.7727 373.851 46.259 371.685 47.363C369.562 48.4246 366.993 48.9555 363.978 48.9555C362.322 48.9555 360.75 48.7431 359.264 48.3185C357.82 47.9363 356.546 47.2993 355.442 46.4076C354.338 45.5158 353.447 44.4118 352.767 43.0954C352.13 41.7365 351.812 40.1653 351.812 38.3818C351.812 36.9805 352.109 35.6216 352.703 34.3052C353.298 32.9464 354.105 31.6724 355.124 30.4834C356.185 29.2519 357.417 28.1479 358.818 27.1712C360.22 26.1945 361.748 25.3664 363.404 24.687C362.173 22.9035 361.154 21.2049 360.347 19.5913C359.54 17.9776 359.137 16.364 359.137 14.7503ZM374.105 12.2662C374.105 10.7374 373.638 9.48474 372.704 8.50806C371.812 7.48891 370.581 6.97934 369.01 6.97934C367.354 6.97934 366.037 7.55261 365.061 8.69915C364.084 9.84569 363.596 11.2682 363.596 12.9668C363.596 14.2408 363.956 15.727 364.678 17.4256C365.443 19.1242 366.419 20.6954 367.608 22.1391C369.774 20.7803 371.388 19.2091 372.449 17.4256C373.553 15.5996 374.105 13.8798 374.105 12.2662ZM411.113 26.3431C411.113 22.7337 411.687 19.5276 412.833 16.7249C414.022 13.8798 415.657 11.4806 417.738 9.52721C419.861 7.57384 422.388 6.08759 425.318 5.06844C428.248 4.04929 431.454 3.53972 434.936 3.53972C438.46 3.53972 441.688 4.04929 444.618 5.06844C447.548 6.08759 450.053 7.57384 452.134 9.52721C454.257 11.4806 455.892 13.8798 457.039 16.7249C458.228 19.5276 458.822 22.7337 458.822 26.3431C458.822 29.9526 458.228 33.1799 457.039 36.025C455.892 38.8277 454.257 41.2057 452.134 43.1591C450.053 45.1124 447.548 46.5774 444.618 47.5541C441.688 48.4883 438.46 48.9555 434.936 48.9555C431.454 48.9555 428.248 48.4883 425.318 47.5541C422.388 46.5774 419.861 45.1124 417.738 43.1591C415.657 41.2057 414.022 38.8277 412.833 36.025C411.687 33.1799 411.113 29.9526 411.113 26.3431ZM452.58 26.3431C452.58 22.8186 452.134 19.7824 451.242 17.2345C450.35 14.6442 449.098 12.521 447.484 10.8648C445.913 9.16626 444.044 7.91356 441.879 7.10673C439.756 6.29991 437.441 5.8965 434.936 5.8965C432.473 5.8965 430.159 6.29991 427.993 7.10673C425.87 7.91356 424.001 9.16626 422.388 10.8648C420.816 12.521 419.585 14.6442 418.693 17.2345C417.801 19.7824 417.356 22.8186 417.356 26.3431C417.356 29.8677 417.801 32.9251 418.693 35.5155C419.585 38.0633 420.816 40.1865 422.388 41.8851C424.001 43.5412 425.87 44.7727 427.993 45.5795C430.159 46.3864 432.473 46.7898 434.936 46.7898C437.441 46.7898 439.756 46.3864 441.879 45.5795C444.044 44.7727 445.913 43.5412 447.484 41.8851C449.098 40.1865 450.35 38.0633 451.242 35.5155C452.134 32.9251 452.58 29.8677 452.58 26.3431ZM464.364 36.4072C464.364 34.9634 464.343 33.3922 464.3 31.6937C464.3 29.9951 464.279 28.3177 464.237 26.6616C464.194 24.963 464.131 23.3494 464.046 21.8207C464.003 20.2919 463.94 18.9755 463.855 17.8715C465.044 18.0838 465.999 18.19 466.721 18.19C467.443 18.19 468.398 18.0838 469.587 17.8715C469.417 18.9755 469.29 20.0372 469.205 21.0563C469.12 22.0755 469.078 23.0946 469.078 24.1137H469.205C469.502 23.4343 469.927 22.7124 470.479 21.9481C471.031 21.1412 471.732 20.3981 472.581 19.7187C473.473 18.9968 474.534 18.4023 475.766 17.9352C476.997 17.4681 478.399 17.2345 479.97 17.2345C481.583 17.2345 483.176 17.553 484.747 18.19C486.318 18.7845 487.698 19.7187 488.887 20.9926C490.119 22.2665 491.096 23.9014 491.817 25.8973C492.582 27.8506 492.964 30.1862 492.964 32.9039C492.964 35.6216 492.561 37.9784 491.754 39.9742C490.947 41.97 489.885 43.6262 488.569 44.9426C487.295 46.259 485.83 47.2356 484.174 47.8726C482.518 48.4671 480.862 48.7644 479.205 48.7644C474.534 48.7644 471.201 46.7473 469.205 42.7132H469.078V46.7261C469.078 48.0849 469.078 49.5924 469.078 51.2485C469.12 52.9471 469.163 54.6245 469.205 56.2806C469.248 57.9367 469.29 59.5079 469.333 60.9941C469.417 62.5228 469.502 63.818 469.587 64.8796C468.398 64.6673 467.443 64.5611 466.721 64.5611C465.999 64.5611 465.044 64.6673 463.855 64.8796C463.94 63.818 464.003 62.5228 464.046 60.9941C464.131 59.5079 464.194 57.9367 464.237 56.2806C464.279 54.6245 464.3 52.9471 464.3 51.2485C464.343 49.5924 464.364 48.0849 464.364 46.7261V36.4072ZM487.359 32.8402C487.359 30.2923 487.083 28.1903 486.531 26.5342C486.021 24.8781 485.342 23.5617 484.492 22.585C483.685 21.5659 482.751 20.8652 481.69 20.483C480.628 20.1009 479.588 19.9098 478.569 19.9098C476.87 19.9098 475.405 20.2707 474.173 20.9926C472.984 21.7145 472.008 22.6912 471.243 23.9227C470.479 25.1117 469.927 26.5342 469.587 28.1903C469.248 29.804 469.078 31.5238 469.078 33.3498C469.078 42.1824 472.178 46.5987 478.377 46.5987C479.906 46.5987 481.223 46.259 482.327 45.5795C483.473 44.8576 484.407 43.8809 485.129 42.6495C485.894 41.3755 486.446 39.9105 486.785 38.2544C487.168 36.5558 487.359 34.7511 487.359 32.8402ZM511.287 19.2728C509.716 19.2728 508.378 19.6337 507.274 20.3556C506.213 21.0775 505.321 21.9905 504.599 23.0946C503.92 24.1562 503.389 25.3452 503.007 26.6616C502.667 27.9355 502.455 29.1458 502.37 30.2923C503.686 30.3348 505.045 30.3773 506.446 30.4197C507.89 30.4622 509.291 30.4834 510.65 30.4834C512.052 30.4834 513.474 30.4622 514.918 30.4197C516.362 30.3773 517.763 30.3348 519.122 30.2923C519.122 29.1458 519.016 27.9355 518.803 26.6616C518.634 25.3877 518.251 24.1987 517.657 23.0946C517.105 21.9905 516.319 21.0775 515.3 20.3556C514.281 19.6337 512.943 19.2728 511.287 19.2728ZM496.573 33.9867C496.573 28.7636 497.805 24.6658 500.268 21.6933C502.773 18.7208 506.404 17.2345 511.16 17.2345C513.41 17.2345 515.343 17.5955 516.956 18.3173C518.612 18.9968 519.992 19.931 521.097 21.12C522.201 22.2665 523.007 23.6254 523.517 25.1966C524.069 26.7678 524.345 28.4451 524.345 30.2286C524.345 30.6533 524.324 31.0779 524.281 31.5026C524.281 31.8847 524.26 32.2882 524.218 32.7128C521.925 32.6703 519.653 32.6279 517.402 32.5854C515.151 32.5429 512.88 32.5217 510.587 32.5217C509.185 32.5217 507.784 32.5429 506.383 32.5854C505.024 32.6279 503.644 32.6703 502.242 32.7128C502.2 32.9251 502.179 33.2436 502.179 33.6682V34.4963C502.179 36.1524 502.412 37.7024 502.879 39.1462C503.389 40.59 504.111 41.8427 505.045 42.9043C505.979 43.9234 507.126 44.7515 508.485 45.3884C509.843 45.9829 511.415 46.2802 513.198 46.2802C514.047 46.2802 514.918 46.174 515.81 45.9617C516.701 45.7069 517.572 45.3884 518.421 45.0063C519.271 44.5816 520.056 44.0933 520.778 43.5412C521.542 42.9892 522.201 42.3947 522.753 41.7577L523.071 41.9488L522.689 45.07C521.415 46.0891 519.823 46.9596 517.912 47.6815C516.043 48.4034 514.09 48.7644 512.052 48.7644C509.758 48.7644 507.657 48.4246 505.746 47.7452C503.877 47.0233 502.242 46.0042 500.841 44.6878C499.482 43.3289 498.42 41.7365 497.656 39.9105C496.934 38.0846 496.573 36.11 496.573 33.9867ZM539.059 48.1911C538.592 47.0445 537.976 45.5583 537.212 43.7323C536.49 41.9064 535.704 39.9955 534.855 37.9996C534.006 35.9613 533.135 33.9018 532.243 31.821C531.352 29.6978 530.502 27.7232 529.696 25.8973C528.931 24.0288 528.252 22.3939 527.657 20.9926C527.063 19.5913 526.617 18.5509 526.32 17.8715C526.872 17.9564 527.381 18.0413 527.848 18.1263C528.315 18.1687 528.783 18.19 529.25 18.19C529.717 18.19 530.184 18.1687 530.651 18.1263C531.118 18.0413 531.628 17.9564 532.18 17.8715C533.496 21.9481 534.961 25.9822 536.575 29.9738C538.188 33.9655 539.887 38.0846 541.671 42.331C543.454 38.5941 545.153 34.6025 546.766 30.356C548.422 26.1096 549.887 21.9481 551.161 17.8715C552.011 18.0838 552.711 18.19 553.263 18.19C553.815 18.19 554.516 18.0838 555.365 17.8715C555.068 18.466 554.58 19.4851 553.9 20.9289C553.263 22.3302 552.478 24.0288 551.543 26.0246C550.652 27.978 549.654 30.1649 548.55 32.5854C547.488 34.9634 546.384 37.4264 545.238 39.9742C544.133 42.4796 543.029 44.985 541.925 47.4904C540.821 49.9534 539.802 52.2889 538.868 54.4971C537.934 56.7477 537.106 58.7647 536.384 60.5482C535.704 62.3742 535.195 63.818 534.855 64.8796C534.006 64.6673 533.284 64.5611 532.689 64.5611C532.095 64.5611 531.373 64.6673 530.524 64.8796C533.878 59.3168 536.723 53.7539 539.059 48.1911ZM571.316 19.2728C569.745 19.2728 568.408 19.6337 567.303 20.3556C566.242 21.0775 565.35 21.9905 564.628 23.0946C563.949 24.1562 563.418 25.3452 563.036 26.6616C562.696 27.9355 562.484 29.1458 562.399 30.2923C563.715 30.3348 565.074 30.3773 566.475 30.4197C567.919 30.4622 569.321 30.4834 570.679 30.4834C572.081 30.4834 573.503 30.4622 574.947 30.4197C576.391 30.3773 577.792 30.3348 579.151 30.2923C579.151 29.1458 579.045 27.9355 578.833 26.6616C578.663 25.3877 578.281 24.1987 577.686 23.0946C577.134 21.9905 576.348 21.0775 575.329 20.3556C574.31 19.6337 572.972 19.2728 571.316 19.2728ZM556.602 33.9867C556.602 28.7636 557.834 24.6658 560.297 21.6933C562.802 18.7208 566.433 17.2345 571.189 17.2345C573.44 17.2345 575.372 17.5955 576.985 18.3173C578.641 18.9968 580.022 19.931 581.126 21.12C582.23 22.2665 583.037 23.6254 583.546 25.1966C584.098 26.7678 584.374 28.4451 584.374 30.2286C584.374 30.6533 584.353 31.0779 584.31 31.5026C584.31 31.8847 584.289 32.2882 584.247 32.7128C581.954 32.6703 579.682 32.6279 577.431 32.5854C575.181 32.5429 572.909 32.5217 570.616 32.5217C569.214 32.5217 567.813 32.5429 566.412 32.5854C565.053 32.6279 563.673 32.6703 562.271 32.7128C562.229 32.9251 562.208 33.2436 562.208 33.6682V34.4963C562.208 36.1524 562.441 37.7024 562.908 39.1462C563.418 40.59 564.14 41.8427 565.074 42.9043C566.008 43.9234 567.155 44.7515 568.514 45.3884C569.873 45.9829 571.444 46.2802 573.227 46.2802C574.077 46.2802 574.947 46.174 575.839 45.9617C576.731 45.7069 577.601 45.3884 578.45 45.0063C579.3 44.5816 580.085 44.0933 580.807 43.5412C581.572 42.9892 582.23 42.3947 582.782 41.7577L583.1 41.9488L582.718 45.07C581.444 46.0891 579.852 46.9596 577.941 47.6815C576.072 48.4034 574.119 48.7644 572.081 48.7644C569.788 48.7644 567.686 48.4246 565.775 47.7452C563.906 47.0233 562.271 46.0042 560.87 44.6878C559.511 43.3289 558.45 41.7365 557.685 39.9105C556.963 38.0846 556.602 36.11 556.602 33.9867ZM589.916 29.7828C589.916 27.8718 589.873 25.876 589.788 23.7953C589.746 21.672 589.619 19.6974 589.406 17.8715C590.595 18.0838 591.551 18.19 592.273 18.19C592.612 18.19 592.973 18.1687 593.355 18.1263C593.78 18.0413 594.268 17.9564 594.82 17.8715C594.693 19.57 594.629 21.2686 594.629 22.9672H594.757C597.007 19.1454 600.171 17.2345 604.248 17.2345C605.309 17.2345 606.35 17.4044 607.369 17.7441C608.388 18.0413 609.301 18.466 610.108 19.018C610.957 19.57 611.679 20.2495 612.273 21.0563C612.868 21.8207 613.271 22.6487 613.484 23.5405H613.611C614.63 21.5022 616.01 19.9522 617.751 18.8906C619.535 17.7865 621.573 17.2345 623.866 17.2345C625.267 17.2345 626.563 17.4256 627.752 17.8078C628.941 18.19 629.96 18.7845 630.809 19.5913C631.701 20.3981 632.38 21.4385 632.847 22.7124C633.357 23.9864 633.612 25.5151 633.612 27.2986C633.612 28.0205 633.59 28.8061 633.548 29.6554C633.506 30.5046 633.463 31.5026 633.421 32.6491C633.378 33.7532 633.336 35.0271 633.293 36.4709C633.251 37.8722 633.23 39.5071 633.23 41.3755C633.23 42.5221 633.23 43.6262 633.23 44.6878C633.272 45.7494 633.336 46.8959 633.421 48.1274C632.954 48.0425 632.486 48 632.019 48C631.552 48 631.106 48 630.682 48C630.215 48 629.747 48 629.28 48C628.813 48 628.346 48.0425 627.879 48.1274C628.006 47.0658 628.134 44.9213 628.261 41.694C628.431 38.4667 628.516 33.9655 628.516 28.1903C628.516 27.1287 628.389 26.1308 628.134 25.1966C627.921 24.2624 627.561 23.4555 627.051 22.7761C626.541 22.0967 625.862 21.5659 625.013 21.1837C624.163 20.7591 623.102 20.5467 621.828 20.5467C620.299 20.5467 619.004 20.844 617.942 21.4385C616.881 22.033 616.053 22.7337 615.458 23.5405C615.118 24.0076 614.842 24.4747 614.63 24.9418C614.46 25.4089 614.312 26.1308 614.184 27.1075C614.099 28.0417 614.036 29.3793 613.993 31.1204C613.951 32.819 613.929 35.1757 613.929 38.1907C613.929 40.0167 613.951 41.694 613.993 43.2227C614.078 44.709 614.163 46.3439 614.248 48.1274C613.271 48.0425 612.337 48 611.445 48C610.554 48 609.619 48.0425 608.643 48.1274C608.855 45.7918 609.004 43.4138 609.088 40.9934C609.173 38.5729 609.216 36.1949 609.216 33.8593C609.216 31.8635 609.195 30.3136 609.152 29.2095C609.152 28.0629 609.11 27.1712 609.025 26.5342C608.94 25.8548 608.812 25.3028 608.643 24.8781C608.515 24.4535 608.324 23.9864 608.069 23.4768C607.602 22.67 606.859 21.9905 605.84 21.4385C604.863 20.844 603.844 20.5467 602.783 20.5467C599.98 20.5467 597.92 21.4597 596.604 23.2857C595.288 25.1117 594.629 27.6808 594.629 30.993V36.4072C594.629 38.3181 594.651 40.3352 594.693 42.4584C594.778 44.5391 594.927 46.4288 595.139 48.1274C594.162 48.0425 593.207 48 592.273 48C591.338 48 590.383 48.0425 589.406 48.1274C589.619 46.4288 589.746 44.5391 589.788 42.4584C589.873 40.3352 589.916 38.3181 589.916 36.4072V29.7828ZM642.339 6.78825C642.339 5.8965 642.657 5.13214 643.294 4.49517C643.931 3.8582 644.695 3.53972 645.587 3.53972C646.479 3.53972 647.243 3.8582 647.88 4.49517C648.517 5.13214 648.836 5.8965 648.836 6.78825C648.836 7.68 648.517 8.44436 647.88 9.08133C647.243 9.7183 646.479 10.0368 645.587 10.0368C644.695 10.0368 643.931 9.7183 643.294 9.08133C642.657 8.44436 642.339 7.68 642.339 6.78825ZM643.23 29.7828C643.23 27.8718 643.188 25.876 643.103 23.7953C643.061 21.672 642.933 19.6974 642.721 17.8715C643.91 18.0838 644.865 18.19 645.587 18.19C646.309 18.19 647.265 18.0838 648.454 17.8715C648.241 19.6974 648.093 21.672 648.008 23.7953C647.965 25.876 647.944 27.8718 647.944 29.7828V36.4072C647.944 38.3181 647.965 40.3352 648.008 42.4584C648.093 44.5391 648.241 46.4288 648.454 48.1274C647.477 48.0425 646.521 48 645.587 48C644.653 48 643.698 48.0425 642.721 48.1274C642.933 46.4288 643.061 44.5391 643.103 42.4584C643.188 40.3352 643.23 38.3181 643.23 36.4072V29.7828Z" fill="url(#paint0_linear_206_36)"/>
<defs>
<linearGradient id="paint0_linear_206_36" x1="-28.5" y1="26.5" x2="980.5" y2="26.5" gradientUnits="userSpaceOnUse">
<stop stop-color="white" stop-opacity="0.5"/>
<stop offset="1" stop-color="#D9D9D9" stop-opacity="0"/>
</linearGradient>
</defs>
</svg>
